<svg xmlns="http://www.w3.org/2000/svg" width="9" height="15" viewBox="0 0 9 15">
    <path fill="#FFF" fill-rule="nonzero" d="M8.506.003L6.389 0C4.011 0 2.474 1.436 2.474 3.658v1.687H.346c-.184 0-.333.136-.333.303v2.444c0 .167.15.303.333.303h2.128v6.166c0 .168.15.303.333.303h2.777c.184 0 .333-.135.333-.303V8.395h2.488c.184 0 .333-.136.333-.303V5.648a.29.29 0 0 0-.097-.214.35.35 0 0 0-.235-.09h-2.49V3.916c0-.687.18-1.036 1.163-1.036h1.426c.184 0 .333-.136.333-.304V.306c0-.167-.149-.303-.332-.303z"/>
</svg>
