<svg xmlns="http://www.w3.org/2000/svg" viewBox="0 0 721.55 359.06"><defs><style>.cls-1,.cls-2,.cls-3{fill:#ffffff;}.cls-1,.cls-2{stroke:#ffffff;stroke-miterlimit:10;}.cls-1{stroke-width:0.5px;}.cls-2{stroke-width:4.5px;}</style></defs><g id="Layer_1" data-name="Layer 1"><circle class="cls-1" cx="542.02" cy="179.53" r="50"/><path class="cls-1" d="M788.54,478.18A107.17,107.17,0,1,1,681.37,371,107.17,107.17,0,0,1,788.54,478.18ZM681.37,298.9A179.29,179.29,0,1,0,860.65,478.18,179.28,179.28,0,0,0,681.37,298.9Z" transform="translate(-139.35 -298.65)"/><path class="cls-2" d="M681.37,526,656.6,582.47m24.77,3.77L671.46,526" transform="translate(-139.35 -298.65)"/><path class="cls-2" d="M693.75,524.39l-9.32,60.94m24.91-2.77L684.17,527" transform="translate(-139.35 -298.65)"/><path class="cls-2" d="M705.29,519.61l6.77,61.28m23.34-9.13-38.7-47.19" transform="translate(-139.35 -298.65)"/><path class="cls-2" d="M715.19,512l22.41,57.43m20.18-14.85L708.18,519" transform="translate(-139.35 -298.65)"/><path class="cls-2" d="M722.8,502.1l36.5,49.68M775,532.21l-57.11-21.52" transform="translate(-139.35 -298.65)"/><path class="cls-2" d="M727.57,490.57l48.12,38.53m10-23-60.73-6" transform="translate(-139.35 -298.65)"/><path class="cls-2" d="M729.2,478.18,785.66,503m3.77-24.78L729.2,488.1" transform="translate(-139.35 -298.65)"/><path class="cls-2" d="M727.57,465.8l60.95,9.32m-2.78-24.9-55.6,25.16" transform="translate(-139.35 -298.65)"/><path class="cls-2" d="M722.8,454.27l61.27-6.78M775,424.16l-47.2,38.69" transform="translate(-139.35 -298.65)"/><path class="cls-2" d="M715.19,444.36,772.63,422m-14.85-20.18L722.2,451.37" transform="translate(-139.35 -298.65)"/><path class="cls-2" d="M705.29,436.76,755,400.26M735.4,384.61l-21.53,57.11" transform="translate(-139.35 -298.65)"/><path class="cls-2" d="M693.75,432l38.54-48.12m-22.95-10.05-6,60.74" transform="translate(-139.35 -298.65)"/><path class="cls-2" d="M681.37,430.35l24.77-56.45m-24.77-3.77,9.92,60.22" transform="translate(-139.35 -298.65)"/><path class="cls-2" d="M669,432,678.31,371m-24.91,2.77,25.17,55.61" transform="translate(-139.35 -298.65)"/><path class="cls-2" d="M657.45,436.76l-6.77-61.28m-23.34,9.13L666,431.8" transform="translate(-139.35 -298.65)"/><path class="cls-2" d="M647.55,444.36l-22.41-57.43M605,401.78l49.6,35.57" transform="translate(-139.35 -298.65)"/><path class="cls-2" d="M640,454.27l-36.51-49.68m-15.65,19.57,57.11,21.52" transform="translate(-139.35 -298.65)"/><path class="cls-2" d="M635.17,465.8l-48.12-38.53m-10,23,60.73,6" transform="translate(-139.35 -298.65)"/><path class="cls-2" d="M633.54,478.18l-56.46-24.77m-3.77,24.77,60.23-9.91" transform="translate(-139.35 -298.65)"/><path class="cls-2" d="M635.17,490.57l-60.94-9.32m2.77,24.9L632.6,481" transform="translate(-139.35 -298.65)"/><path class="cls-2" d="M640,502.1l-61.28,6.78m9.12,23.33,47.2-38.7" transform="translate(-139.35 -298.65)"/><path class="cls-2" d="M647.55,512l-57.44,22.4M605,554.59,640.54,505" transform="translate(-139.35 -298.65)"/><path class="cls-2" d="M657.45,519.61l-49.68,36.5m19.57,15.65,21.53-57.11" transform="translate(-139.35 -298.65)"/><path class="cls-2" d="M669,524.39l-38.54,48.12m22.95,10,6-60.74" transform="translate(-139.35 -298.65)"/><path class="cls-1" d="M516.37,698.18" transform="translate(-139.35 -298.65)"/></g><g id="Layer_3" data-name="Layer 3"><path class="cls-3" d="M489.09,478.18A178.92,178.92,0,0,1,555,339.32c-59.46-35-155.81,4.52-170.1,10.39-67.22,27.59-76.95,59.91-122.76,62.89-50.12,3.25-93.47-31.86-122.77-62.89,4.21,11.77,35.77,95.71,122.77,125.77,55.94,19.34,104.7,6,122.76,0-3.88,9.08-20.86,46-61.38,62.89-40.08,16.74-87.56,7.43-122.77-23.58,24.73,57.43,75,91.69,122.77,86.47,29.94-3.27,51.18-21.22,61.38-31.44.41,8.33,1.43,21.45-8.06,36.51-14.74,23.4-46.35,34-78.12,28.52,10.48,4.64,26.29,10.36,43.81,11.81,40.91,3.38,72.16-13.78,84.84-21.78A261.87,261.87,0,0,1,491,592.21a257.56,257.56,0,0,1,32.13-9A178.4,178.4,0,0,1,489.09,478.18Z" transform="translate(-139.35 -298.65)"/></g></svg>