<svg xmlns="http://www.w3.org/2000/svg" viewBox="0 0 704.21 352.92"><defs><style>.cls-1{fill:none;}.cls-2,.cls-4,.cls-5{fill:#fff;}.cls-3,.cls-4{stroke:#fff;}.cls-3,.cls-4,.cls-5{stroke-miterlimit:10;}.cls-3,.cls-5{stroke-width:0.49px;}.cls-4{stroke-width:4.43px;}.cls-5{stroke:#fff;}</style></defs><g id="Layer_2" data-name="Layer 2"><path class="cls-1" d="M356.78,217C351,220.65,348,224.3,348,227.1c0,3.83,5.65,9.26,16.35,14.08" transform="translate(-5.79 -3.25)"/><path class="cls-1" d="M85.58,93.77a2,2,0,0,0-2-1.92C79.2,92.36,75,93,71,93.81a6.89,6.89,0,0,0-1.6,3.93,4.76,4.76,0,0,0,.07.75c4.48-.94,9.3-1.74,14.47-2.35A2.1,2.1,0,0,0,85.58,93.77Z" transform="translate(-5.79 -3.25)"/><path class="cls-1" d="M101.25,197.75a1.78,1.78,0,0,0,1.65-1.68,1.9,1.9,0,0,0-1.44-2.16,159.46,159.46,0,0,1-17.11-3.53,11.63,11.63,0,0,0-1.76,3.45A162,162,0,0,0,101,197.74Z" transform="translate(-5.79 -3.25)"/><path class="cls-1" d="M110.51,171.17a110.88,110.88,0,0,1,13.73-3c6-7.71,21.31-14.7,41.06-18.67-23.82-4.79-41.1-14-43.6-23.51-23.61,3-39.81,9.94-47.4,16.19a19.41,19.41,0,0,0-3.55,3.7l1.78.34c-.84.27-1.67.55-2.48.84a5.42,5.42,0,0,0-.67,2.44,5,5,0,0,0,.36,1.75C72.1,157.44,86.29,166.35,110.51,171.17Z" transform="translate(-5.79 -3.25)"/><path class="cls-1" d="M289.67,243.9a163.78,163.78,0,0,0-18.92,3.34c3.28.82,6.78,1.57,10.49,2.22,2.74-.46,5.59-.88,8.55-1.24a15.66,15.66,0,0,1,1.85-2.76A1.89,1.89,0,0,0,289.67,243.9Z" transform="translate(-5.79 -3.25)"/><path class="cls-1" d="M347,270.52a1.68,1.68,0,0,0-2.61-.25c-1.78,1.74-3.75,3.53-5.87,5.32q2.57.44,5.26.79c1-.95,2.06-1.89,3-2.82A2.38,2.38,0,0,0,347,270.52Z" transform="translate(-5.79 -3.25)"/><path class="cls-1" d="M332.45,123.62c-23.82-4.79-41.1-14-43.6-23.51-33.7,4.34-52.32,16.55-52.32,23.51s18.62,19.17,52.32,23.5C291.35,137.58,308.63,128.41,332.45,123.62Z" transform="translate(-5.79 -3.25)"/><path class="cls-1" d="M121.7,173c0-.17.11-.35.17-.53-.59.11-1.18.21-1.75.33Z" transform="translate(-5.79 -3.25)"/><path class="cls-1" d="M177.42,151.85c-33.71,4.34-52.32,16.55-52.32,23.51s18.61,19.17,52.32,23.51c2.49-9.54,19.78-18.72,43.6-23.51C197.2,170.57,179.91,161.39,177.42,151.85Z" transform="translate(-5.79 -3.25)"/><path class="cls-1" d="M352.43,187.55c-4.23-3.11-7-6.44-7.86-9.82-33.71,4.33-52.32,16.55-52.32,23.5s18.61,19.17,52.32,23.51c1.1-4.22,5.09-8.36,11.25-12.08" transform="translate(-5.79 -3.25)"/><path class="cls-1" d="M262.7,249.43c-16.38-5.1-27.59-12.42-29.57-20-33.7,4.34-52.32,16.55-52.32,23.51,0,7.52,20.75,18,52,22.32a11.13,11.13,0,0,1-.55-3.39C232.28,263.48,244.31,255.06,262.7,249.43Z" transform="translate(-5.79 -3.25)"/><path class="cls-1" d="M288.76,254.94a165.53,165.53,0,0,1-18-3.29C248.21,257.2,236,266.28,236,271.91a8.43,8.43,0,0,0,1.7,4.62.21.21,0,0,0,0,.06,17.78,17.78,0,0,0,1.29,1.65c7.76,8.8,29.37,17.95,50.79,17.39,18-.48,33-8,44.22-16.47C309.06,274.4,290.91,264.83,288.76,254.94Z" transform="translate(-5.79 -3.25)"/><path class="cls-1" d="M233.13,126c-33.7,4.34-52.32,16.55-52.32,23.51s18.62,19.17,52.32,23.5c2.5-9.54,19.79-18.71,43.6-23.5C252.92,144.7,235.63,135.52,233.13,126Z" transform="translate(-5.79 -3.25)"/><path class="cls-1" d="M288.85,151.85c-33.7,4.34-52.32,16.55-52.32,23.51s18.62,19.17,52.32,23.51c2.5-9.54,19.78-18.72,43.6-23.51C308.63,170.57,291.35,161.39,288.85,151.85Z" transform="translate(-5.79 -3.25)"/><path class="cls-1" d="M71,93.81c4-.78,8.22-1.45,12.56-2a2,2,0,0,1,2,1.92,2.1,2.1,0,0,1-1.66,2.37c-5.17.61-10,1.41-14.47,2.35,1.25,7.06,19.72,18.58,52.25,22.76,2.49-9.53,19.75-18.7,43.54-23.49a125.28,125.28,0,0,1-23.1-6.83c-6.88.54-13.83.84-20.87.84a297,297,0,0,1-44.15-3.42A24.9,24.9,0,0,0,71,93.81Z" transform="translate(-5.79 -3.25)"/><path class="cls-1" d="M344.57,69.51c1.36-5.23,7.17-10.35,16.06-14.7a109.43,109.43,0,0,0-25-9.09,100,100,0,0,0-43.37-.27,5.28,5.28,0,0,0,0,.55C292.25,53,310.86,65.17,344.57,69.51Z" transform="translate(-5.79 -3.25)"/><path class="cls-1" d="M177.42,203.6c-33.71,4.33-52.32,16.55-52.32,23.5s18.61,19.17,52.32,23.51c2.49-9.54,19.78-18.72,43.6-23.51C197.2,222.31,179.91,213.14,177.42,203.6Z" transform="translate(-5.79 -3.25)"/><path class="cls-1" d="M233.13,177.73c-33.7,4.33-52.32,16.55-52.32,23.5s18.62,19.17,52.32,23.51c2.5-9.54,19.79-18.72,43.6-23.51C252.92,196.44,235.63,187.27,233.13,177.73Z" transform="translate(-5.79 -3.25)"/><path class="cls-1" d="M234.6,66.19c-2.11.88-4.23,1.77-6.37,2.64,1.59.26,3.23.49,4.9.7A11.92,11.92,0,0,1,234.6,66.19Z" transform="translate(-5.79 -3.25)"/><path class="cls-1" d="M220.76,71.85l-.41.16.61-.13Z" transform="translate(-5.79 -3.25)"/><path class="cls-1" d="M125.1,123.62c0,6.95,18.61,19.17,52.32,23.5,2.49-9.54,19.78-18.71,43.6-23.5-23.82-4.79-41.11-14-43.6-23.51C143.71,104.45,125.1,116.66,125.1,123.62Z" transform="translate(-5.79 -3.25)"/><path class="cls-1" d="M276.73,97.74c-23.81-4.79-41.1-14-43.6-23.5-33.7,4.33-52.32,16.55-52.32,23.5s18.62,19.17,52.32,23.51C235.63,111.71,252.92,102.53,276.73,97.74Z" transform="translate(-5.79 -3.25)"/><path class="cls-1" d="M332.45,71.87c-23.82-4.79-41.1-14-43.6-23.5a155.92,155.92,0,0,0-19.76,3.79c-7.57,2.73-15.22,5.89-23.1,9.22-6.22,3.78-9.46,7.59-9.46,10.49,0,7,18.62,19.17,52.32,23.51C291.35,85.84,308.63,76.66,332.45,71.87Z" transform="translate(-5.79 -3.25)"/><path class="cls-1" d="M190.45,82.27c-2.74.78-5.53,1.53-8.38,2.23A242.53,242.53,0,0,1,152,90a146.94,146.94,0,0,0,25.39,5.42C178.6,90.79,183.26,86.26,190.45,82.27Z" transform="translate(-5.79 -3.25)"/><path class="cls-1" d="M109.58,123.62C85.43,118.76,68,109.39,65.89,99.7l-1.13-.14c-22.63,5.55-34.89,14.66-34.89,20.3,0,6,14,16,39.55,21.37C76,133.94,90.74,127.41,109.58,123.62Z" transform="translate(-5.79 -3.25)"/><path class="cls-1" d="M70.75,145.87a8.68,8.68,0,0,0-.7,1.18c.81-.29,1.64-.57,2.48-.84Z" transform="translate(-5.79 -3.25)"/><path class="cls-1" d="M102.68,173.81C83.1,168.9,69.13,161,66.23,152.66c-11.91,5.14-19,11.88-19,17.32,0,5.94,14.81,14,33.63,19.43C84.22,183.49,92.08,177.94,102.68,173.81Z" transform="translate(-5.79 -3.25)"/><path class="cls-1" d="M71.49,87.45A374.07,374.07,0,0,1,13.74,72.67C15,79.62,33,90.88,64.59,95.2l1.56-.37A17.34,17.34,0,0,1,71.49,87.45Z" transform="translate(-5.79 -3.25)"/><path class="cls-1" d="M121.61,177.32c-4.09-.52-8-1.17-11.84-1.92-12.54,3.89-21.58,9.59-25.42,15a159.46,159.46,0,0,0,17.11,3.53,1.9,1.9,0,0,1,1.44,2.16,1.78,1.78,0,0,1-1.65,1.68H101a162,162,0,0,1-18.45-3.91,7.11,7.11,0,0,0-.31,2c0,8.37,16.9,19.84,42.17,23.81,6.2-7.61,21.33-14.48,40.85-18.41C141.15,196.37,123.72,187,121.61,177.32Z" transform="translate(-5.79 -3.25)"/><path class="cls-1" d="M288.85,250.61a11.62,11.62,0,0,1,.94-2.39c-3,.36-5.81.78-8.55,1.24C283.68,249.89,286.23,250.27,288.85,250.61Z" transform="translate(-5.79 -3.25)"/><path class="cls-1" d="M288.85,203.6c-33.7,4.33-52.32,16.55-52.32,23.5,0,5.59,12,14.58,34.22,20.14a163.78,163.78,0,0,1,18.92-3.34,1.89,1.89,0,0,1,2,1.56c6.23-7.59,21.33-14.44,40.81-18.36C308.63,222.31,291.35,213.14,288.85,203.6Z" transform="translate(-5.79 -3.25)"/><path d="M66.15,94.83q2.37-.54,4.83-1a24.9,24.9,0,0,1,6.14-5.46l-5.63-.9A17.34,17.34,0,0,0,66.15,94.83Z" transform="translate(-5.79 -3.25)"/><path d="M121.7,121.25c-32.53-4.18-51-15.7-52.25-22.76l-.23.05a1.87,1.87,0,0,1-1.7,1.36h-.19l-1.44-.19c2.11,9.69,19.54,19.06,43.69,23.92,3.85-.78,7.87-1.44,12-2C121.64,121.52,121.66,121.38,121.7,121.25Z" transform="translate(-5.79 -3.25)"/><path d="M70.75,145.87q-2-.39-4-.84a10.59,10.59,0,0,0-1.05,3.69c1.4-.59,2.84-1.14,4.34-1.67A8.68,8.68,0,0,1,70.75,145.87Z" transform="translate(-5.79 -3.25)"/><path d="M102.68,173.81q3.7-1.44,7.83-2.64c-24.22-4.82-38.41-13.73-40.77-19.93-1.21.46-2.38.93-3.51,1.42C69.13,161,83.1,168.9,102.68,173.81Z" transform="translate(-5.79 -3.25)"/><path d="M109.77,175.4c3.79.75,7.75,1.4,11.84,1.92a9.36,9.36,0,0,1-.23-2,9.2,9.2,0,0,1,.32-2.37l-1.58-.2A97.7,97.7,0,0,0,109.77,175.4Z" transform="translate(-5.79 -3.25)"/><path d="M121.61,125.58c-4.16-.53-8.18-1.19-12-2C90.74,127.41,76,133.94,69.42,141.23c1.58.33,3.21.65,4.88.94C81.89,135.92,98.09,129,121.7,126,121.66,125.85,121.64,125.71,121.61,125.58Z" transform="translate(-5.79 -3.25)"/><path d="M121.61,121.65c-4.16.53-8.18,1.19-12,2,3.85.77,7.87,1.43,12,2a8.51,8.51,0,0,1,0-3.93Z" transform="translate(-5.79 -3.25)"/><path d="M120.12,172.79c.57-.12,1.16-.22,1.75-.33a13.85,13.85,0,0,1,2.37-4.3,110.88,110.88,0,0,0-13.73,3C113.55,171.78,116.75,172.33,120.12,172.79Z" transform="translate(-5.79 -3.25)"/><path d="M109.77,175.4q-3.66-.74-7.09-1.59c-10.6,4.13-18.46,9.68-21.86,15.6,1.16.33,2.34.66,3.53,1C88.19,185,97.23,179.29,109.77,175.4Z" transform="translate(-5.79 -3.25)"/><path d="M82.28,195.83a7.11,7.11,0,0,1,.31-2l-3.24-.91a11.58,11.58,0,0,0-.39,2.91c0,11.53,18.42,23,43.29,27.34a15.2,15.2,0,0,1,2.2-3.53C99.18,215.67,82.28,204.2,82.28,195.83Z" transform="translate(-5.79 -3.25)"/><path d="M110.51,171.17q-4.12,1.2-7.83,2.64,3.43.85,7.09,1.59a97.7,97.7,0,0,1,10.35-2.61C116.75,172.33,113.55,171.78,110.51,171.17Z" transform="translate(-5.79 -3.25)"/><path d="M177.42,147.12c-33.71-4.33-52.32-16.55-52.32-23.5s18.61-19.17,52.32-23.51c0-.13-.06-.25-.09-.38-4.18-.53-8.22-1.19-12.09-2-23.79,4.79-41.05,14-43.54,23.49l1.72.22h0a2.11,2.11,0,0,1,.36.09l.09,0c.08,0,.17.07.25.12a.87.87,0,0,0,.1.08l.19.16.08.08c.06.07.12.13.18.21l0,.09a2,2,0,0,1,.14.25,1,1,0,0,1,.06.16,1.55,1.55,0,0,1,.08.23,2.61,2.61,0,0,1,.08.42v.44a2.38,2.38,0,0,1,0,.26v0a3.36,3.36,0,0,1-.14.45l0,0a2,2,0,0,1-.37.56s0,0-.05,0a1.92,1.92,0,0,1-.5.36l-.08,0a1.43,1.43,0,0,1-.39.11l-.06,0-1.73.22c2.5,9.54,19.78,18.72,43.6,23.51,3.85-.78,7.87-1.44,12-2C177.36,147.39,177.38,147.26,177.42,147.12Z" transform="translate(-5.79 -3.25)"/><path d="M123.05,121.47a2.28,2.28,0,0,1,.37,0l-1.72-.22c0,.13-.06.27-.09.4Z" transform="translate(-5.79 -3.25)"/><path d="M123.49,125.74a1,1,0,0,1-.25,0h-.19l-1.44-.18c0,.13,0,.27.09.4l1.73-.22Z" transform="translate(-5.79 -3.25)"/><path d="M123.24,125.77a1,1,0,0,0,.25,0,1.43,1.43,0,0,0,.39-.11l.08,0a1.92,1.92,0,0,0,.5-.36s0,0,.05,0a2,2,0,0,0,.37-.56l0,0a3.36,3.36,0,0,0,.14-.45v0a2.61,2.61,0,0,0,0-.48A2.25,2.25,0,0,0,125,123a1.55,1.55,0,0,0-.08-.23,1,1,0,0,0-.06-.16,2,2,0,0,0-.14-.25l0-.09c-.06-.08-.12-.14-.18-.21l-.08-.08-.19-.16a.87.87,0,0,1-.1-.08c-.08,0-.17-.08-.25-.12l-.09,0a2.22,2.22,0,0,0-.37-.09,2.28,2.28,0,0,0-.37,0l-1.44.18a8.51,8.51,0,0,0,0,3.93l1.44.18Z" transform="translate(-5.79 -3.25)"/><path d="M125.09,123.4A2.61,2.61,0,0,0,125,123a2.25,2.25,0,0,1,.08.64Z" transform="translate(-5.79 -3.25)"/><path d="M125.09,123.84v-.22a2.61,2.61,0,0,1,0,.48A2.38,2.38,0,0,0,125.09,123.84Z" transform="translate(-5.79 -3.25)"/><path d="M123.43,121.47h0a2.22,2.22,0,0,1,.37.09A2.11,2.11,0,0,0,123.43,121.47Z" transform="translate(-5.79 -3.25)"/><path d="M177.42,198.87c-33.71-4.34-52.32-16.55-52.32-23.51s18.61-19.17,52.32-23.51c0-.13-.06-.27-.09-.4-4.16-.53-8.18-1.19-12-2-19.75,4-35,11-41.06,18.67L125,168a1.74,1.74,0,0,1,1.86,1.67,1.9,1.9,0,0,1-1.44,2.16c-1.2.18-2.37.38-3.53.59-.06.18-.12.36-.17.53.57.08,1.14.16,1.73.22a2.11,2.11,0,0,1,1.66,2.37,2,2,0,0,1-1.85,1.94l-.19,0-1.44-.18c2.11,9.68,19.54,19.05,43.69,23.91,3.85-.77,7.87-1.43,12-2C177.36,199.14,177.38,199,177.42,198.87Z" transform="translate(-5.79 -3.25)"/><path d="M121.61,177.32l1.44.18.19,0a2,2,0,0,0,1.85-1.94,2.11,2.11,0,0,0-1.66-2.37c-.59-.06-1.16-.14-1.73-.22a9.2,9.2,0,0,0-.32,2.37A9.36,9.36,0,0,0,121.61,177.32Z" transform="translate(-5.79 -3.25)"/><path d="M125.4,171.87a1.9,1.9,0,0,0,1.44-2.16A1.74,1.74,0,0,0,125,168l-.74.12a13.85,13.85,0,0,0-2.37,4.3C123,172.25,124.2,172.05,125.4,171.87Z" transform="translate(-5.79 -3.25)"/><path d="M177.33,147.53c-4.16.52-8.18,1.18-12,2,3.85.77,7.87,1.43,12,2a8.47,8.47,0,0,1,0-3.92Z" transform="translate(-5.79 -3.25)"/><path d="M177.42,250.61c-33.71-4.34-52.32-16.55-52.32-23.51s18.61-19.17,52.32-23.5c0-.14-.06-.27-.09-.41-4.16-.53-8.18-1.18-12-2-19.52,3.93-34.65,10.8-40.85,18.41l1,.15a1.9,1.9,0,0,1,1.44,2.16,1.77,1.77,0,0,1-1.65,1.68H125q-1.38-.21-2.73-.45a10,10,0,0,0-.87,3.93c0,11.91,24,23.78,56,27.84a8.69,8.69,0,0,1-.24-2A9.2,9.2,0,0,1,177.42,250.61Z" transform="translate(-5.79 -3.25)"/><path d="M125.19,223.63a1.77,1.77,0,0,0,1.65-1.68,1.9,1.9,0,0,0-1.44-2.16l-1-.15a15.2,15.2,0,0,0-2.2,3.53q1.35.24,2.73.45Z" transform="translate(-5.79 -3.25)"/><path d="M177.33,199.27c-4.16.53-8.18,1.19-12,2,3.85.78,7.87,1.43,12,2a8.47,8.47,0,0,1,0-3.92Z" transform="translate(-5.79 -3.25)"/><path d="M177.41,95.4l1.55.2a2,2,0,0,1,1.84,1.92v0a1.47,1.47,0,0,1,0,.21,1.33,1.33,0,0,1,0,.2v0s0,0,0,.05a2.48,2.48,0,0,1-.15.61l-.11.23a4,4,0,0,1-.23.34,2.47,2.47,0,0,1-.28.28l-.23.17a2,2,0,0,1-.4.16l-.24.06h-.06l-.13,0h-.07l-1.47.19c2.49,9.54,19.78,18.72,43.6,23.51,3.85-.78,7.87-1.44,12-2l.09-.4c-33.7-4.34-52.32-16.55-52.32-23.51s18.62-19.17,52.32-23.5c0-.13,0-.25-.08-.38-4.18-.53-8.22-1.2-12.09-2l-.61.13c-9.44,3.71-19.3,7.24-29.9,10.26C183.26,86.26,178.6,90.79,177.41,95.4Z" transform="translate(-5.79 -3.25)"/><path d="M179.15,99.89l.24-.06a1.63,1.63,0,0,1-.3.07Z" transform="translate(-5.79 -3.25)"/><path d="M177.33,99.73c0,.13,0,.25.09.38l1.47-.19h-.12C178.28,99.86,177.81,99.79,177.33,99.73Z" transform="translate(-5.79 -3.25)"/><path d="M180.8,97.55v0A2,2,0,0,0,179,95.6l.19,0A2,2,0,0,1,180.8,97.55Z" transform="translate(-5.79 -3.25)"/><path d="M233.13,173c-33.7-4.33-52.32-16.55-52.32-23.5s18.62-19.17,52.32-23.51l-.09-.4c-4.15-.53-8.17-1.19-12-2-23.82,4.79-41.11,14-43.6,23.5l1.73.22.06,0a1.5,1.5,0,0,1,.36.11l.14.06a1.78,1.78,0,0,1,.36.25s.05,0,.06,0a1.37,1.37,0,0,1,.16.18,1.27,1.27,0,0,1,.1.12l.09.15.11.19a1.59,1.59,0,0,1,.07.2c0,.06.05.12.07.19a1.84,1.84,0,0,1,.07.42,1.61,1.61,0,0,1,0,.22,1.61,1.61,0,0,1,0,.22,1.09,1.09,0,0,1,0,.26v0a2.15,2.15,0,0,1-.14.45.06.06,0,0,1,0,0,2.21,2.21,0,0,1-.38.56.1.1,0,0,1,0,0,1.72,1.72,0,0,1-.5.36l-.09,0a2.38,2.38,0,0,1-.38.11h-.06l-1.73.22c2.49,9.54,19.78,18.72,43.6,23.51,3.85-.77,7.87-1.43,12-2Z" transform="translate(-5.79 -3.25)"/><path d="M178.77,147.34a2.13,2.13,0,0,1,.44,0l-.06,0-1.73-.22c0,.14-.06.27-.09.41Z" transform="translate(-5.79 -3.25)"/><path d="M179.21,151.62l-.25,0h-.19c-.49,0-1-.12-1.44-.18,0,.13,0,.27.09.4l1.73-.22Z" transform="translate(-5.79 -3.25)"/><path d="M179,151.64l.25,0a2.38,2.38,0,0,0,.38-.11l.09,0a1.72,1.72,0,0,0,.5-.36.1.1,0,0,0,0,0,2.21,2.21,0,0,0,.38-.56.06.06,0,0,0,0,0,2.15,2.15,0,0,0,.14-.45v0a2.52,2.52,0,0,0,0-.48,2.67,2.67,0,0,0-.07-.64c0-.07,0-.13-.07-.19a1.59,1.59,0,0,0-.07-.2l-.11-.19-.09-.15a1.27,1.27,0,0,0-.1-.12,1.37,1.37,0,0,0-.16-.18s0,0-.06,0a1.78,1.78,0,0,0-.36-.25l-.14-.06a1.5,1.5,0,0,0-.36-.11,2.13,2.13,0,0,0-.44,0l-1.44.19a8.47,8.47,0,0,0,0,3.92c.48.06.95.13,1.44.18Z" transform="translate(-5.79 -3.25)"/><path d="M180.8,149.27a1.84,1.84,0,0,0-.07-.42,2.67,2.67,0,0,1,.07.64A1.61,1.61,0,0,0,180.8,149.27Z" transform="translate(-5.79 -3.25)"/><path d="M180.8,149.71a1.61,1.61,0,0,0,0-.22,2.52,2.52,0,0,1,0,.48A1.09,1.09,0,0,0,180.8,149.71Z" transform="translate(-5.79 -3.25)"/><path d="M232.82,123.62a9.44,9.44,0,0,1,.22-2c-4.15.53-8.17,1.19-12,2,3.85.77,7.87,1.43,12,2A9.42,9.42,0,0,1,232.82,123.62Z" transform="translate(-5.79 -3.25)"/><path d="M233.13,224.74c-33.7-4.34-52.32-16.55-52.32-23.51s18.62-19.17,52.32-23.5l-.09-.41c-4.15-.53-8.17-1.19-12-2-23.82,4.79-41.11,14-43.6,23.51l1.72.22h0a1.55,1.55,0,0,1,.36.08l.05,0a1.22,1.22,0,0,1,.28.14l.08.06a1.84,1.84,0,0,1,.22.17l.07.08a1.92,1.92,0,0,1,.18.22.7.7,0,0,1,.06.09,2,2,0,0,1,.14.25.85.85,0,0,1,.06.17,1.8,1.8,0,0,1,.08.21,2,2,0,0,1,.07.42,1.61,1.61,0,0,1,0,.22,1.62,1.62,0,0,1,0,.22,1.26,1.26,0,0,1,0,.27v0a2.15,2.15,0,0,1-.14.45s0,0,0,0a2.46,2.46,0,0,1-.38.57l0,0a1.92,1.92,0,0,1-.5.36l-.09,0a1.66,1.66,0,0,1-.38.11l-.06,0-1.73.22c2.49,9.54,19.78,18.71,43.6,23.5,3.85-.77,7.87-1.43,12-2Z" transform="translate(-5.79 -3.25)"/><path d="M178.77,199.09a1.15,1.15,0,0,1,.37,0l-1.72-.22c0,.13-.06.27-.09.4C177.81,199.21,178.28,199.14,178.77,199.09Z" transform="translate(-5.79 -3.25)"/><path d="M179.21,203.36l-.25,0h-.19l-1.44-.19c0,.14,0,.27.09.41l1.73-.22Z" transform="translate(-5.79 -3.25)"/><path d="M179,203.39l.25,0a1.66,1.66,0,0,0,.38-.11l.09,0a1.92,1.92,0,0,0,.5-.36l0,0a2.46,2.46,0,0,0,.38-.57s0,0,0,0a2.15,2.15,0,0,0,.14-.45v0a2.63,2.63,0,0,0,0-.49,2.67,2.67,0,0,0-.07-.64,1.8,1.8,0,0,0-.08-.21.85.85,0,0,0-.06-.17,2,2,0,0,0-.14-.25.7.7,0,0,0-.06-.09,1.92,1.92,0,0,0-.18-.22l-.07-.08a1.84,1.84,0,0,0-.22-.17l-.08-.06a1.22,1.22,0,0,0-.28-.14l-.05,0a1.53,1.53,0,0,0-.37-.08,1.15,1.15,0,0,0-.37,0c-.49,0-1,.12-1.44.18a8.47,8.47,0,0,0,0,3.92l1.44.19Z" transform="translate(-5.79 -3.25)"/><path d="M180.8,201a2,2,0,0,0-.07-.42,2.67,2.67,0,0,1,.07.64A1.61,1.61,0,0,0,180.8,201Z" transform="translate(-5.79 -3.25)"/><path d="M179.15,199.09h0a1.53,1.53,0,0,1,.37.08A1.55,1.55,0,0,0,179.15,199.09Z" transform="translate(-5.79 -3.25)"/><path d="M180.8,201.45a1.62,1.62,0,0,0,0-.22,2.63,2.63,0,0,1,0,.49A1.26,1.26,0,0,0,180.8,201.45Z" transform="translate(-5.79 -3.25)"/><path d="M233,173.4c-4.15.53-8.17,1.19-12,2,3.85.77,7.87,1.43,12,2a8.84,8.84,0,0,1,0-3.92Z" transform="translate(-5.79 -3.25)"/><path d="M180.81,253c0-7,18.62-19.17,52.32-23.51l-.09-.41c-4.15-.52-8.17-1.18-12-2-23.82,4.79-41.11,14-43.6,23.51l1.73.22a2.09,2.09,0,0,1,1.65,2.36,2,2,0,0,1-1.84,1.94h-.19l-1.43-.18c2.73,12.13,30.4,21.64,58,25a15.75,15.75,0,0,1-2.5-4.66C201.56,271,180.81,260.5,180.81,253Z" transform="translate(-5.79 -3.25)"/><path d="M179,255.13a2,2,0,0,0,1.84-1.94,2.09,2.09,0,0,0-1.65-2.36l-1.73-.22a9.2,9.2,0,0,0-.32,2.37,8.69,8.69,0,0,0,.24,2l1.43.18Z" transform="translate(-5.79 -3.25)"/><path d="M233,225.14c-4.15.53-8.17,1.19-12,2,3.85.78,7.87,1.44,12,2a8.84,8.84,0,0,1,0-3.92Z" transform="translate(-5.79 -3.25)"/><path d="M234.86,121.47a2.22,2.22,0,0,1,.37.09l.05,0,.28.14.08.06c.07.06.15.11.22.18l.06.06.19.23a.2.2,0,0,1,0,.08,2.26,2.26,0,0,1,.16.26l.06.17a1.43,1.43,0,0,1,.08.22,2.63,2.63,0,0,1,.07.42,1.61,1.61,0,0,1,0,.22,1.61,1.61,0,0,1,0,.22,2.38,2.38,0,0,1-.05.26v0a2.35,2.35,0,0,1-.14.45s0,0,0,0a2.21,2.21,0,0,1-.38.56l0,0a1.82,1.82,0,0,1-.51.36.2.2,0,0,1-.08,0,1.25,1.25,0,0,1-.39.11l-.06,0-1.73.22c2.5,9.54,19.79,18.72,43.6,23.51,3.85-.78,7.87-1.44,12-2,0-.14.05-.27.09-.41-33.7-4.33-52.32-16.55-52.32-23.5s18.62-19.17,52.32-23.51c0-.13-.06-.27-.09-.4-4.16-.53-8.18-1.19-12-2-23.81,4.79-41.1,14-43.6,23.51l1.73.22Z" transform="translate(-5.79 -3.25)"/><path d="M234.86,121.47l-1.73-.22-.09.4,1.44-.18A2.41,2.41,0,0,1,234.86,121.47Z" transform="translate(-5.79 -3.25)"/><path d="M234.92,125.74a1,1,0,0,1-.24,0h-.2l-1.44-.18.09.4,1.73-.22Z" transform="translate(-5.79 -3.25)"/><path d="M233,125.58l1.44.18h.2a1,1,0,0,0,.24,0,1.25,1.25,0,0,0,.39-.11.2.2,0,0,0,.08,0,1.82,1.82,0,0,0,.51-.36l0,0a2.21,2.21,0,0,0,.38-.56s0,0,0,0a2.35,2.35,0,0,0,.14-.45v0a2.65,2.65,0,0,0,0-1.12,1.43,1.43,0,0,0-.08-.22l-.06-.17a2.26,2.26,0,0,0-.16-.26.2.2,0,0,0,0-.08l-.19-.23-.06-.06c-.07-.07-.15-.12-.22-.18l-.08-.06-.28-.14-.05,0a2.22,2.22,0,0,0-.37-.09,2.41,2.41,0,0,0-.38,0l-1.44.18a8.89,8.89,0,0,0,0,3.93Z" transform="translate(-5.79 -3.25)"/><path d="M236.45,123a2.62,2.62,0,0,1,.07.64,1.61,1.61,0,0,0,0-.22A2.63,2.63,0,0,0,236.45,123Z" transform="translate(-5.79 -3.25)"/><path d="M236.52,123.62a2.61,2.61,0,0,1-.05.48,2.38,2.38,0,0,0,.05-.26A1.61,1.61,0,0,0,236.52,123.62Z" transform="translate(-5.79 -3.25)"/><path d="M234.86,121.47a2.22,2.22,0,0,1,.37.09,2.22,2.22,0,0,0-.37-.09Z" transform="translate(-5.79 -3.25)"/><path d="M288.85,198.87c-33.7-4.34-52.32-16.55-52.32-23.51s18.62-19.17,52.32-23.51c0-.13-.06-.27-.09-.4-4.16-.53-8.18-1.19-12-2-23.81,4.79-41.1,14-43.6,23.5.58.08,1.15.16,1.73.22l.12,0a1.68,1.68,0,0,1,.24.06,1.51,1.51,0,0,1,.18.09l.16.07.14.11.16.13.09.11.16.18.06.11a1.88,1.88,0,0,1,.14.24s0,.12.06.18a1.19,1.19,0,0,1,.08.2,2.63,2.63,0,0,1,.07.42,1.62,1.62,0,0,1,0,.22,1.61,1.61,0,0,1,0,.22,2,2,0,0,1-.05.26v0a2.15,2.15,0,0,1-.14.45s0,0,0,0a2.21,2.21,0,0,1-.38.56l0,.06a1.82,1.82,0,0,1-.51.36l-.08,0a2.22,2.22,0,0,1-.39.11h-.06l-1.73.23c2.5,9.54,19.79,18.71,43.6,23.5,3.85-.77,7.87-1.43,12-2C288.79,199.14,288.81,199,288.85,198.87Z" transform="translate(-5.79 -3.25)"/><path d="M234.48,173.21a2,2,0,0,1,.5,0l-.12,0c-.58-.06-1.15-.14-1.73-.22l-.09.41Z" transform="translate(-5.79 -3.25)"/><path d="M234.92,177.49l-.24,0-.2,0-1.44-.18.09.41,1.73-.23Z" transform="translate(-5.79 -3.25)"/><path d="M234.68,177.52l.24,0a2.22,2.22,0,0,0,.39-.11l.08,0a1.82,1.82,0,0,0,.51-.36l0-.06a2.21,2.21,0,0,0,.38-.56s0,0,0,0a2.15,2.15,0,0,0,.14-.45v0a2.44,2.44,0,0,0,.05-.48,2.67,2.67,0,0,0-.07-.64,1.19,1.19,0,0,0-.08-.2c0-.06,0-.13-.06-.18a1.88,1.88,0,0,0-.14-.24l-.06-.11-.16-.18-.09-.11-.16-.13-.14-.11-.16-.07a1.51,1.51,0,0,0-.18-.09,1.68,1.68,0,0,0-.24-.06,2,2,0,0,0-.5,0l-1.44.19a8.84,8.84,0,0,0,0,3.92l1.44.18Z" transform="translate(-5.79 -3.25)"/><path d="M236.52,175.14a2.63,2.63,0,0,0-.07-.42,2.67,2.67,0,0,1,.07.64A1.62,1.62,0,0,0,236.52,175.14Z" transform="translate(-5.79 -3.25)"/><path d="M236.52,175.58a1.61,1.61,0,0,0,0-.22,2.44,2.44,0,0,1-.05.48A2,2,0,0,0,236.52,175.58Z" transform="translate(-5.79 -3.25)"/><path d="M288.76,147.53c-4.16.52-8.18,1.18-12,2,3.85.77,7.87,1.43,12,2a8.47,8.47,0,0,1,0-3.92Z" transform="translate(-5.79 -3.25)"/><path d="M270.74,251.65a165.53,165.53,0,0,0,18,3.29,9.44,9.44,0,0,1-.23-2,9.2,9.2,0,0,1,.32-2.37c-2.62-.34-5.17-.72-7.61-1.15C277.53,250.1,274,250.84,270.74,251.65Z" transform="translate(-5.79 -3.25)"/><path d="M262.7,249.43c2.57-.79,5.26-1.52,8.05-2.19-22.2-5.56-34.22-14.55-34.22-20.14,0-6.95,18.62-19.17,52.32-23.5,0-.14-.06-.27-.09-.41-4.16-.53-8.18-1.18-12-2-23.81,4.79-41.1,14-43.6,23.51l1.73.22.12,0,.1,0a1.32,1.32,0,0,1,.39.15l.08.05a1.4,1.4,0,0,1,.33.27.46.46,0,0,1,.07.07,2.24,2.24,0,0,1,.31.43l0,.08a1.82,1.82,0,0,1,.11.3l0,.09a3.07,3.07,0,0,1,.07.42,1.61,1.61,0,0,1,0,.22,1.61,1.61,0,0,1,0,.22,2.56,2.56,0,0,1-.05.27v0a2.35,2.35,0,0,1-.14.45s0,0,0,0a2.1,2.1,0,0,1-.38.57l0,.05a1.82,1.82,0,0,1-.51.36l-.08,0a1.6,1.6,0,0,1-.39.11l-.06,0-1.73.22C235.11,237,246.32,244.33,262.7,249.43Z" transform="translate(-5.79 -3.25)"/><path d="M234.48,225a1.67,1.67,0,0,1,.5,0l-.12,0-1.73-.22-.09.4Z" transform="translate(-5.79 -3.25)"/><path d="M234.92,229.23a1,1,0,0,1-.24,0h-.2l-1.44-.19.09.41,1.73-.22Z" transform="translate(-5.79 -3.25)"/><path d="M234.68,229.26a1,1,0,0,0,.24,0,1.6,1.6,0,0,0,.39-.11l.08,0a1.82,1.82,0,0,0,.51-.36l0-.05a2.1,2.1,0,0,0,.38-.57s0,0,0,0a2.35,2.35,0,0,0,.14-.45v0a2.63,2.63,0,0,0,.05-.49,2.67,2.67,0,0,0-.07-.64l0-.09a1.82,1.82,0,0,0-.11-.3l0-.08a2.24,2.24,0,0,0-.31-.43.46.46,0,0,0-.07-.07,1.4,1.4,0,0,0-.33-.27l-.08-.05a1.32,1.32,0,0,0-.39-.15l-.1,0a1.67,1.67,0,0,0-.5,0l-1.44.18a8.84,8.84,0,0,0,0,3.92l1.44.19Z" transform="translate(-5.79 -3.25)"/><path d="M236.52,226.88a3.07,3.07,0,0,0-.07-.42,2.67,2.67,0,0,1,.07.64A1.61,1.61,0,0,0,236.52,226.88Z" transform="translate(-5.79 -3.25)"/><path d="M236.52,227.32a1.61,1.61,0,0,0,0-.22,2.63,2.63,0,0,1-.05.49A2.56,2.56,0,0,0,236.52,227.32Z" transform="translate(-5.79 -3.25)"/><path d="M288.76,199.27c-4.16.53-8.18,1.19-12,2,3.85.78,7.87,1.43,12,2a8.47,8.47,0,0,1,0-3.92Z" transform="translate(-5.79 -3.25)"/><path d="M270.74,251.65c-2.79-.68-5.48-1.42-8-2.22-18.39,5.63-30.42,14.05-30.42,22.48a11.13,11.13,0,0,0,.55,3.39c1.2.17,2.41.32,3.63.47a1.79,1.79,0,0,1,1.24.76,8.43,8.43,0,0,1-1.7-4.62C236,266.28,248.21,257.2,270.74,251.65Z" transform="translate(-5.79 -3.25)"/><path d="M289.82,295.63c-21.42.56-43-8.59-50.79-17.39a17.78,17.78,0,0,1-1.29-1.65,2.42,2.42,0,0,1,.38,1.54,2,2,0,0,1-1.84,1.94h-.19l-.76-.1c.34.46.7.91,1.1,1.36C245.66,291.79,268.5,300,288.09,300c.6,0,1.21,0,1.81,0,20.77-.55,37.61-10,49.57-19.84q-2.76-.44-5.43-.94C322.83,287.61,307.85,295.15,289.82,295.63Z" transform="translate(-5.79 -3.25)"/><path d="M236.28,280.07a2,2,0,0,0,1.84-1.94,2.42,2.42,0,0,0-.38-1.54.21.21,0,0,1,0-.06,1.79,1.79,0,0,0-1.24-.76c-1.22-.15-2.43-.3-3.63-.47a15.75,15.75,0,0,0,2.5,4.66l.76.1Z" transform="translate(-5.79 -3.25)"/><path d="M270.75,247.24c-2.79.67-5.48,1.4-8.05,2.19,2.56.8,5.25,1.54,8,2.22,3.29-.81,6.79-1.55,10.5-2.19C277.53,248.81,274,248.06,270.75,247.24Z" transform="translate(-5.79 -3.25)"/><path d="M290.75,95.64a.67.67,0,0,1,.19,0l.18.08.15.08.14.11.16.12a.81.81,0,0,1,.09.1c.06.07.12.13.17.2l.05.09.15.25a1.77,1.77,0,0,0,.06.17l.07.21a2.07,2.07,0,0,1,.08.42V98a2.16,2.16,0,0,1-.05.27v0a3.5,3.5,0,0,1-.14.46l0,0a2,2,0,0,1-.37.57l-.05,0a1.64,1.64,0,0,1-.5.36l-.08,0a1.9,1.9,0,0,1-.39.11l-.06,0-1.73.22c2.5,9.54,19.78,18.72,43.6,23.51,3.85-.78,7.87-1.44,12-2,0-.13,0-.27.09-.4-33.71-4.34-52.32-16.55-52.32-23.51s18.61-19.17,52.32-23.5c0-.14-.06-.27-.09-.41-4.16-.52-8.18-1.18-12-2-23.82,4.79-41.1,14-43.6,23.51l1.73.22Z" transform="translate(-5.79 -3.25)"/><path d="M290.64,99.87a1,1,0,0,1-.25,0h-.19l-1.44-.18c0,.13.05.27.09.4l1.73-.22Z" transform="translate(-5.79 -3.25)"/><path d="M344.57,173c-33.71-4.33-52.32-16.55-52.32-23.5s18.61-19.17,52.32-23.51c0-.13-.06-.27-.09-.4-4.16-.53-8.18-1.19-12-2-23.82,4.79-41.1,14-43.6,23.5l1.73.22.12,0,.1,0a2.25,2.25,0,0,1,.45.19h0a1.56,1.56,0,0,1,.2.16l.1.07.12.14.14.16.06.12a1.28,1.28,0,0,1,.14.23l.06.16c0,.08.05.14.07.22a1.84,1.84,0,0,1,.08.42v.44a2,2,0,0,1-.05.26v0a3,3,0,0,1-.14.45s0,0,0,0a2,2,0,0,1-.37.56l-.05,0a1.49,1.49,0,0,1-.5.36l-.08,0a2.85,2.85,0,0,1-.39.11h-.06l-1.73.22c2.5,9.54,19.78,18.72,43.6,23.51,3.85-.77,7.87-1.43,12-2C344.51,173.26,344.53,173.13,344.57,173Z" transform="translate(-5.79 -3.25)"/><path d="M290.7,147.37l-.12,0-1.73-.22c0,.14-.06.27-.09.41l1.44-.19A1.67,1.67,0,0,1,290.7,147.37Z" transform="translate(-5.79 -3.25)"/><path d="M290.64,151.62l-.25,0h-.19c-.48,0-1-.12-1.44-.18,0,.13.05.27.09.4l1.73-.22Z" transform="translate(-5.79 -3.25)"/><path d="M290.39,151.64l.25,0a2.85,2.85,0,0,0,.39-.11l.08,0a1.49,1.49,0,0,0,.5-.36l.05,0a2,2,0,0,0,.37-.56s0,0,0,0a3,3,0,0,0,.14-.45v0a2.52,2.52,0,0,0,.05-.48,2.25,2.25,0,0,0-.08-.64c0-.08-.05-.14-.07-.22l-.06-.16a1.28,1.28,0,0,0-.14-.23l-.06-.12-.14-.16-.12-.14-.1-.07a1.56,1.56,0,0,0-.2-.16h0a2.25,2.25,0,0,0-.45-.19l-.1,0a1.67,1.67,0,0,0-.5,0l-1.44.19a8.47,8.47,0,0,0,0,3.92c.48.06,1,.13,1.44.18Z" transform="translate(-5.79 -3.25)"/><path d="M292.24,149.27a1.84,1.84,0,0,0-.08-.42,2.25,2.25,0,0,1,.08.64Z" transform="translate(-5.79 -3.25)"/><path d="M292.24,149.71v-.22a2.52,2.52,0,0,1-.05.48A2,2,0,0,0,292.24,149.71Z" transform="translate(-5.79 -3.25)"/><path d="M344.25,123.62a9.46,9.46,0,0,1,.23-2c-4.16.53-8.18,1.19-12,2,3.85.77,7.87,1.43,12,2A9.44,9.44,0,0,1,344.25,123.62Z" transform="translate(-5.79 -3.25)"/><path d="M344.57,224.74c-33.71-4.34-52.32-16.55-52.32-23.51s18.61-19.17,52.32-23.5c0-.14-.06-.27-.09-.41-4.16-.53-8.18-1.19-12-2-23.82,4.79-41.1,14-43.6,23.51l1.72.22h0a1.53,1.53,0,0,1,.37.08h0a2.06,2.06,0,0,1,.33.17l0,0a1.94,1.94,0,0,1,.27.21l0,0a1.88,1.88,0,0,1,.22.26s0,0,0,0a1.83,1.83,0,0,1,.18.3s0,.09.05.14a2.25,2.25,0,0,1,.08.24,2.07,2.07,0,0,1,.08.42v.44a2.56,2.56,0,0,1-.05.27v0a3,3,0,0,1-.14.45s0,0,0,0a2.15,2.15,0,0,1-.37.57s0,0-.05,0a1.64,1.64,0,0,1-.5.36l-.08,0a1.9,1.9,0,0,1-.39.11l-.06,0-1.73.22c2.5,9.54,19.78,18.71,43.6,23.5,3.85-.77,7.87-1.43,12-2C344.51,225,344.53,224.87,344.57,224.74Z" transform="translate(-5.79 -3.25)"/><path d="M290.2,199.09a1.15,1.15,0,0,1,.37,0l-1.72-.22c0,.13-.06.27-.09.4C289.24,199.21,289.72,199.14,290.2,199.09Z" transform="translate(-5.79 -3.25)"/><path d="M290.64,203.36a1.9,1.9,0,0,1-.25,0h-.19l-1.44-.19c0,.14.05.27.09.41l1.73-.22Z" transform="translate(-5.79 -3.25)"/><path d="M290.39,203.39a2.12,2.12,0,0,0,.64-.14l.08,0a1.64,1.64,0,0,0,.5-.36s0,0,.05,0a2.15,2.15,0,0,0,.37-.57s0,0,0,0a3,3,0,0,0,.14-.45v0a2.63,2.63,0,0,0,.05-.49,2.28,2.28,0,0,0-.16-.88s0-.1-.05-.14a1.83,1.83,0,0,0-.18-.3s0,0,0,0a1.88,1.88,0,0,0-.22-.26l0,0a1.94,1.94,0,0,0-.27-.21l0,0a2.06,2.06,0,0,0-.33-.17h0a1.61,1.61,0,0,0-.38-.08,1.15,1.15,0,0,0-.37,0c-.48,0-1,.12-1.44.18a8.47,8.47,0,0,0,0,3.92l1.44.19Z" transform="translate(-5.79 -3.25)"/><path d="M292.24,201a2.07,2.07,0,0,0-.08-.42,2.25,2.25,0,0,1,.08.64Z" transform="translate(-5.79 -3.25)"/><path d="M290.58,199.09h0a1.61,1.61,0,0,1,.38.08A1.53,1.53,0,0,0,290.58,199.09Z" transform="translate(-5.79 -3.25)"/><path d="M292.24,201.45v-.22a2.63,2.63,0,0,1-.05.49A2.56,2.56,0,0,0,292.24,201.45Z" transform="translate(-5.79 -3.25)"/><path d="M344.48,173.4c-4.16.53-8.18,1.19-12,2,3.85.77,7.87,1.43,12,2a8.47,8.47,0,0,1,0-3.92Z" transform="translate(-5.79 -3.25)"/><path d="M344.26,278.66a2,2,0,0,1,2-2h0l-2.51-.32q-2,1.86-4.3,3.72,3.16.5,6.45.89h0A2.08,2.08,0,0,1,344.26,278.66Z" transform="translate(-5.79 -3.25)"/><path d="M292.25,253c0-7,18.61-19.17,52.32-23.51,0-.14-.06-.27-.09-.41-4.16-.52-8.18-1.18-12-2C313,231,297.87,237.87,291.64,245.46a2.29,2.29,0,0,1,.07.36,2.1,2.1,0,0,1-1.66,2.37l-.26,0a11.62,11.62,0,0,0-.94,2.39l1.73.22a2.1,2.1,0,0,1,1.66,2.36,2,2,0,0,1-1.85,1.94h-.19l-1.44-.18c2.15,9.89,20.3,19.46,45.28,24.22,1.57-1.18,3-2.37,4.47-3.57C308.64,270.66,292.25,259.5,292.25,253Z" transform="translate(-5.79 -3.25)"/><path d="M288.76,254.94l1.44.18h.19a2,2,0,0,0,1.85-1.94,2.1,2.1,0,0,0-1.66-2.36l-1.73-.22a9.2,9.2,0,0,0-.32,2.37A9.44,9.44,0,0,0,288.76,254.94Z" transform="translate(-5.79 -3.25)"/><path d="M290.05,248.19a2.1,2.1,0,0,0,1.66-2.37,2.29,2.29,0,0,0-.07-.36,15.66,15.66,0,0,0-1.85,2.76Z" transform="translate(-5.79 -3.25)"/><path d="M338.51,275.59c-1.42,1.2-2.9,2.39-4.47,3.57q2.67.51,5.43.94,2.28-1.86,4.3-3.72Q341.07,276,338.51,275.59Z" transform="translate(-5.79 -3.25)"/><path d="M344.48,225.14c-4.16.53-8.18,1.19-12,2,3.85.78,7.87,1.44,12,2a8.47,8.47,0,0,1,0-3.92Z" transform="translate(-5.79 -3.25)"/><path d="M344.57,69.51l1.73.22.23,0,.13,0,.21.11L347,70a1,1,0,0,1,.16.12l.14.11.1.11a1.39,1.39,0,0,1,.15.19.22.22,0,0,1,0,.08,1.74,1.74,0,0,1,.15.26l.05.12a2,2,0,0,1,.09.26,2,2,0,0,1,.07.42h0a1.62,1.62,0,0,1,0,.22,1.55,1.55,0,0,1,0,.22h0a2.63,2.63,0,0,1-.06.39,3.59,3.59,0,0,1-.12.35s0,0,0,0a2.18,2.18,0,0,1-.37.56l-.05.06a1.92,1.92,0,0,1-.5.36l-.09,0a1.66,1.66,0,0,1-.38.11l-.06,0-1.73.22c1.89,7.24,12.32,14.27,27.65,19.33.66-1.28,1.35-2.55,2-3.81C357.14,84.23,348,76.76,348,71.87c0-4,6-9.6,17.37-14.54-1.55-.87-3.12-1.72-4.7-2.52C351.74,59.16,345.93,64.28,344.57,69.51Z" transform="translate(-5.79 -3.25)"/><path d="M345.92,74l-1.44-.19c0,.14,0,.27.09.41L346.3,74l.06,0-.25,0Z" transform="translate(-5.79 -3.25)"/><path d="M346.37,121.49a1.37,1.37,0,0,1,.29.07l.15.07.18.09.13.1a.75.75,0,0,1,.17.14.73.73,0,0,1,.08.09,1.63,1.63,0,0,1,.17.2l0,.07a2.49,2.49,0,0,1,.15.28.42.42,0,0,1,0,.1,1.33,1.33,0,0,1,.1.28,1.85,1.85,0,0,1,.07.41h0a1.55,1.55,0,0,1,0,.22,1.7,1.7,0,0,1,0,.22h0a2.32,2.32,0,0,1-.06.38c0,.12-.08.24-.12.36l0,0a2.37,2.37,0,0,1-.37.56s0,0-.05,0a1.92,1.92,0,0,1-.5.36l-.09,0a1.27,1.27,0,0,1-.38.11l-.06,0-1.73.22c1.11,4.27,5.21,8.47,11.51,12.24q.48-2.17,1-4.32c-6-3.71-9.11-7.44-9.11-10.28,0-3.91,5.89-9.49,17-14.39.76-1.87,1.54-3.74,2.36-5.58-12.65,4.87-21.1,11.15-22.78,17.6l1.73.22Z" transform="translate(-5.79 -3.25)"/><path d="M346.37,121.49l-.07,0-1.73-.22c0,.13-.06.27-.09.4l1.44-.18A1.35,1.35,0,0,1,346.37,121.49Z" transform="translate(-5.79 -3.25)"/><path d="M346.36,125.74l-.25,0h-.19l-1.44-.18c0,.13,0,.27.09.4l1.73-.22Z" transform="translate(-5.79 -3.25)"/><path d="M344.48,125.58l1.44.18h.19l.25,0a1.27,1.27,0,0,0,.38-.11l.09,0a1.92,1.92,0,0,0,.5-.36s0,0,.05,0a2.37,2.37,0,0,0,.37-.56l0,0c0-.12.09-.24.12-.36a2.32,2.32,0,0,0,.06-.38h0a1.7,1.7,0,0,0,0-.22,1.55,1.55,0,0,0,0-.22h0a1.85,1.85,0,0,0-.07-.41,1.33,1.33,0,0,0-.1-.28.42.42,0,0,0,0-.1,2.49,2.49,0,0,0-.15-.28l0-.07a1.63,1.63,0,0,0-.17-.2.73.73,0,0,0-.08-.09.75.75,0,0,0-.17-.14l-.13-.1-.18-.09-.15-.07a1.37,1.37,0,0,0-.29-.07,1.35,1.35,0,0,0-.45,0l-1.44.18a8.51,8.51,0,0,0,0,3.93Z" transform="translate(-5.79 -3.25)"/><path d="M352.43,187.55q-.17-2.75-.27-5.49c-2.76-2.45-4.2-4.78-4.2-6.7s1.45-4.28,4.26-6.74q.11-2.77.3-5.52c-4.28,3.13-7.06,6.49-7.95,9.89.57.08,1.14.16,1.73.22h0a2.37,2.37,0,0,1,.36.09l.09,0a1.83,1.83,0,0,1,.24.13l.1.07a1.56,1.56,0,0,1,.2.16l.06.07a1.06,1.06,0,0,1,.19.23.1.1,0,0,1,0,.05,1.64,1.64,0,0,1,.16.29.42.42,0,0,1,0,.1,1.33,1.33,0,0,1,.1.28,2,2,0,0,1,.07.42h0a2.43,2.43,0,0,1,0,.44h0a2.32,2.32,0,0,1-.06.38,3,3,0,0,1-.12.36l0,0a2.18,2.18,0,0,1-.37.56l-.05.06a2.19,2.19,0,0,1-.5.36l-.09,0a2.38,2.38,0,0,1-.38.11h-.06l-1.73.23C345.45,181.11,348.2,184.44,352.43,187.55Z" transform="translate(-5.79 -3.25)"/><path d="M345.92,173.21a2.41,2.41,0,0,1,.38,0c-.59-.06-1.16-.14-1.73-.22,0,.14-.06.27-.09.41Z" transform="translate(-5.79 -3.25)"/><path d="M346.36,177.49l-.25,0-.19,0c-.49-.05-1-.12-1.44-.18,0,.14,0,.27.09.41l1.73-.23Z" transform="translate(-5.79 -3.25)"/><path d="M346.11,177.52l.25,0a2.38,2.38,0,0,0,.38-.11l.09,0a2.19,2.19,0,0,0,.5-.36l.05-.06a2.18,2.18,0,0,0,.37-.56l0,0a3,3,0,0,0,.12-.36,2.32,2.32,0,0,0,.06-.38h0a2.43,2.43,0,0,0,0-.44h0a2,2,0,0,0-.07-.42,1.33,1.33,0,0,0-.1-.28.42.42,0,0,0,0-.1,1.64,1.64,0,0,0-.16-.29.1.1,0,0,0,0-.05,1.06,1.06,0,0,0-.19-.23l-.06-.07a1.56,1.56,0,0,0-.2-.16l-.1-.07a1.83,1.83,0,0,0-.24-.13l-.09,0a2.37,2.37,0,0,0-.36-.09,2.41,2.41,0,0,0-.38,0l-1.44.19a8.47,8.47,0,0,0,0,3.92c.48.06.95.13,1.44.18Z" transform="translate(-5.79 -3.25)"/><path d="M346.3,173.21h0a2.37,2.37,0,0,1,.36.09A2.37,2.37,0,0,0,346.3,173.21Z" transform="translate(-5.79 -3.25)"/><path d="M348,227.1c0-2.8,3-6.45,8.82-10.09-.33-1.45-.66-2.9-1-4.35-6.16,3.72-10.15,7.86-11.25,12.08l1.73.22h.1a1.42,1.42,0,0,1,.35.11l.06,0a1.44,1.44,0,0,1,.31.19l.05,0a2.13,2.13,0,0,1,.3.3l.07.08a1.62,1.62,0,0,1,.1.18l.1.17a1.18,1.18,0,0,1,.07.2,1.34,1.34,0,0,1,.07.18,2,2,0,0,1,.07.42,1.7,1.7,0,0,1,0,.22,1.55,1.55,0,0,1,0,.22,1.26,1.26,0,0,1,0,.27v0a1.88,1.88,0,0,1-.14.46,0,0,0,0,1,0,0,2,2,0,0,1-.38.57l0,.05a1.92,1.92,0,0,1-.5.36l-.09,0a1.66,1.66,0,0,1-.38.11s0,0-.06,0l-1.73.22c1.65,6.32,9.81,12.49,22.06,17.32-.8-1.86-1.58-3.72-2.32-5.61C353.61,236.36,348,230.93,348,227.1Z" transform="translate(-5.79 -3.25)"/><path d="M345.92,225a1.54,1.54,0,0,1,.43,0h-.05l-1.73-.22c0,.13-.06.27-.09.4Z" transform="translate(-5.79 -3.25)"/><path d="M346.36,229.23l-.25,0h-.19l-1.44-.19c0,.14,0,.27.09.41l1.73-.22S346.33,229.23,346.36,229.23Z" transform="translate(-5.79 -3.25)"/><path d="M346.11,229.26l.25,0a1.66,1.66,0,0,0,.38-.11l.09,0a1.92,1.92,0,0,0,.5-.36l0-.05a2,2,0,0,0,.38-.57,0,0,0,0,0,0,0,1.88,1.88,0,0,0,.14-.46v0a2.63,2.63,0,0,0,0-.49,2.29,2.29,0,0,0-.08-.64,1.34,1.34,0,0,0-.07-.18,1.18,1.18,0,0,0-.07-.2l-.1-.17a1.62,1.62,0,0,0-.1-.18l-.07-.08a2.13,2.13,0,0,0-.3-.3l-.05,0a1.44,1.44,0,0,0-.31-.19l-.06,0a1.42,1.42,0,0,0-.35-.11h0a1.54,1.54,0,0,0-.43,0l-1.44.18a8.47,8.47,0,0,0,0,3.92l1.44.19Z" transform="translate(-5.79 -3.25)"/><path d="M348,226.88a2,2,0,0,0-.07-.42,2.29,2.29,0,0,1,.08.64A1.7,1.7,0,0,0,348,226.88Z" transform="translate(-5.79 -3.25)"/><path d="M348,227.32a1.55,1.55,0,0,0,0-.22,2.63,2.63,0,0,1,0,.49A1.26,1.26,0,0,0,348,227.32Z" transform="translate(-5.79 -3.25)"/><path d="M234.68,69.73a2,2,0,0,1,1.84,1.92v0a1.33,1.33,0,0,1,0,.2,1.47,1.47,0,0,1,0,.21v0a.43.43,0,0,0,0,0,2.41,2.41,0,0,1-.16.6,1.75,1.75,0,0,1-.11.24,2.46,2.46,0,0,1-.22.34,2.37,2.37,0,0,1-.28.27,1,1,0,0,1-.24.17,1.36,1.36,0,0,1-.39.17,1.83,1.83,0,0,1-.25.06h-.05l-.13,0h-.07l-1.48.19c2.5,9.54,19.79,18.71,43.6,23.5,3.85-.77,7.87-1.43,12-2,0-.13.05-.27.09-.4-33.7-4.34-52.32-16.55-52.32-23.51,0-2.9,3.24-6.71,9.46-10.49l-4.18,1.76-7.21,3a11.92,11.92,0,0,0-1.47,3.34Z" transform="translate(-5.79 -3.25)"/><path d="M288.76,48c-1.5-.19-3-.39-4.47-.62-5.07,1.36-10.12,3-15.2,4.82a155.92,155.92,0,0,1,19.76-3.79C288.81,48.23,288.79,48.1,288.76,48Z" transform="translate(-5.79 -3.25)"/><path d="M234.48,74l-1.43-.18c0,.13,0,.25.08.38l1.48-.19Z" transform="translate(-5.79 -3.25)"/><path d="M236.52,71.68v0a2,2,0,0,0-1.84-1.92l.18,0A2,2,0,0,1,236.52,71.68Z" transform="translate(-5.79 -3.25)"/><path d="M234.86,74a1.83,1.83,0,0,0,.25-.06,1.07,1.07,0,0,1-.3.06Z" transform="translate(-5.79 -3.25)"/><path d="M288.53,97.74a9.44,9.44,0,0,1,.23-2c-4.16.53-8.18,1.19-12,2,3.85.78,7.87,1.44,12,2A9.46,9.46,0,0,1,288.53,97.74Z" transform="translate(-5.79 -3.25)"/><path d="M290.75,95.64l-.17,0-1.73-.22c0,.13-.06.27-.09.4l1.44-.18A1.68,1.68,0,0,1,290.75,95.64Z" transform="translate(-5.79 -3.25)"/><path d="M288.76,99.71l1.44.18h.19a1,1,0,0,0,.25,0,1.9,1.9,0,0,0,.39-.11l.08,0a1.64,1.64,0,0,0,.5-.36l.05,0a2,2,0,0,0,.37-.57l0,0a3.5,3.5,0,0,0,.14-.46v0a2.63,2.63,0,0,0,.05-.49,2.29,2.29,0,0,0-.08-.64l-.07-.21a1.77,1.77,0,0,1-.06-.17l-.15-.25-.05-.09c-.05-.07-.11-.13-.17-.2a.81.81,0,0,0-.09-.1l-.16-.12-.14-.11-.15-.08-.18-.08a.67.67,0,0,0-.19,0,1.68,1.68,0,0,0-.55,0l-1.44.18a8.51,8.51,0,0,0,0,3.93Z" transform="translate(-5.79 -3.25)"/><path d="M292.24,97.74a2.63,2.63,0,0,1-.05.49,2.16,2.16,0,0,0,.05-.27Z" transform="translate(-5.79 -3.25)"/><path d="M292.16,97.1a2.29,2.29,0,0,1,.08.64v-.22A2.07,2.07,0,0,0,292.16,97.1Z" transform="translate(-5.79 -3.25)"/><path d="M233,69.91c0-.13.05-.25.09-.38-1.67-.21-3.31-.44-4.9-.7-2.47,1-4.95,2-7.47,3l.2,0C224.82,71.1,228.87,70.44,233,69.91Z" transform="translate(-5.79 -3.25)"/><path d="M233,69.91c-4.17.53-8.22,1.19-12.08,2,3.87.78,7.91,1.45,12.09,2a9,9,0,0,1-.23-2A9.35,9.35,0,0,1,233,69.91Z" transform="translate(-5.79 -3.25)"/><path d="M236.52,72.12v0s0,0,0,.08A.43.43,0,0,1,236.52,72.12Z" transform="translate(-5.79 -3.25)"/><path d="M234.68,74.05l.13,0-.2,0Z" transform="translate(-5.79 -3.25)"/><path d="M234.68,69.73l-1.55-.2c0,.13-.06.25-.09.38.48-.06,1-.13,1.44-.18A1.34,1.34,0,0,1,234.68,69.73Z" transform="translate(-5.79 -3.25)"/><path d="M234.61,74.05l.2,0a1.07,1.07,0,0,0,.3-.06,1.36,1.36,0,0,0,.39-.17,1,1,0,0,0,.24-.17,2.37,2.37,0,0,0,.28-.27,2.46,2.46,0,0,0,.22-.34,1.75,1.75,0,0,0,.11-.24,2.41,2.41,0,0,0,.16-.6s0,0,0-.08a1.47,1.47,0,0,0,0-.21,1.33,1.33,0,0,0,0-.2,2,2,0,0,0-1.66-1.93l-.18,0a1.34,1.34,0,0,0-.2,0c-.48,0-1,.12-1.44.18a9.35,9.35,0,0,0-.22,2,9,9,0,0,0,.23,2l1.43.18Z" transform="translate(-5.79 -3.25)"/><path d="M288.55,46.27c-1.42.34-2.84.69-4.26,1.07,1.47.23,3,.43,4.47.62A9.64,9.64,0,0,1,288.55,46.27Z" transform="translate(-5.79 -3.25)"/><path d="M292.24,45.78v.44a2,2,0,0,1-.05.26v0a3,3,0,0,1-.14.45s0,0,0,0a2,2,0,0,1-.37.56l-.05.06a1.64,1.64,0,0,1-.5.36L291,48a2.85,2.85,0,0,1-.39.11h-.06l-1.73.23c2.5,9.54,19.78,18.71,43.6,23.5,3.85-.77,7.87-1.43,12-2,0-.13,0-.27.09-.4C310.86,65.17,292.25,53,292.25,46a5.28,5.28,0,0,1,0-.55l-.1,0h0A2.5,2.5,0,0,1,292.24,45.78Z" transform="translate(-5.79 -3.25)"/><path d="M344.25,71.87a9.36,9.36,0,0,1,.23-2c-4.16.53-8.18,1.19-12,2,3.85.78,7.87,1.44,12,2A9.28,9.28,0,0,1,344.25,71.87Z" transform="translate(-5.79 -3.25)"/><path d="M346.53,69.78l-.23,0-1.73-.22c0,.13-.06.27-.09.4.48-.06.95-.13,1.44-.18A1.57,1.57,0,0,1,346.53,69.78Z" transform="translate(-5.79 -3.25)"/><path d="M344.48,73.83l1.44.19h.19l.25,0a1.66,1.66,0,0,0,.38-.11l.09,0a1.92,1.92,0,0,0,.5-.36l.05-.06a2.18,2.18,0,0,0,.37-.56s0,0,0,0a3.59,3.59,0,0,0,.12-.35,2.63,2.63,0,0,0,.06-.39h0a1.55,1.55,0,0,0,0-.22,1.62,1.62,0,0,0,0-.22h0a2,2,0,0,0-.07-.42,2,2,0,0,0-.09-.26l-.05-.12a1.74,1.74,0,0,0-.15-.26.22.22,0,0,0,0-.08,1.39,1.39,0,0,0-.15-.19l-.1-.11-.14-.11A1,1,0,0,0,347,70l-.12-.06-.21-.11-.13,0a1.57,1.57,0,0,0-.61,0c-.49,0-1,.12-1.44.18a8.47,8.47,0,0,0,0,3.92Z" transform="translate(-5.79 -3.25)"/><path d="M290.2,48.14,288.76,48c0,.14.05.27.09.41l1.73-.23h.06a1.9,1.9,0,0,1-.25,0Z" transform="translate(-5.79 -3.25)"/><path d="M292.19,45.49h0Z" transform="translate(-5.79 -3.25)"/><path d="M290.2,48.14l.19,0a1.9,1.9,0,0,0,.25,0A2.85,2.85,0,0,0,291,48l.08,0a1.64,1.64,0,0,0,.5-.36l.05-.06A2,2,0,0,0,292,47s0,0,0,0a3,3,0,0,0,.14-.45v0a2.44,2.44,0,0,0,.05-.48,2.76,2.76,0,0,0-.05-.51h0c-1.21.24-2.42.51-3.63.79a9.64,9.64,0,0,0,.21,1.69Z" transform="translate(-5.79 -3.25)"/><path d="M292.24,46.22V46a2.44,2.44,0,0,1-.05.48A2,2,0,0,0,292.24,46.22Z" transform="translate(-5.79 -3.25)"/><path d="M292.24,45.78a2.5,2.5,0,0,0-.05-.29,2.76,2.76,0,0,1,.05.51Z" transform="translate(-5.79 -3.25)"/><path d="M65.82,99.3l-1.06.26,1.13.14C65.86,99.57,65.84,99.44,65.82,99.3Z" transform="translate(-5.79 -3.25)"/><path d="M13.74,72.67l-3.67-1.24L10,71.38c0,.17,0,.34,0,.5,0,10.49,18.58,20.93,44.86,26.05,3.08-1,6.34-1.91,9.78-2.73C33,90.88,15,79.62,13.74,72.67Z" transform="translate(-5.79 -3.25)"/><path d="M67.33,99.89h.19a1.87,1.87,0,0,0,1.7-1.36c-1.16.25-2.29.5-3.4.76,0,.14,0,.27.07.4Z" transform="translate(-5.79 -3.25)"/><path d="M29.87,119.86c0-5.64,12.26-14.75,34.89-20.3q-5.13-.69-10-1.63c-17.39,5.63-28.66,13.77-28.66,21.93,0,9.92,16.6,19.8,40.61,25.17a16.85,16.85,0,0,1,2.66-3.8C43.82,135.84,29.87,125.88,29.87,119.86Z" transform="translate(-5.79 -3.25)"/><path d="M64.59,95.2l1.39.18c0-.19.11-.37.17-.55Z" transform="translate(-5.79 -3.25)"/><path d="M69.37,98a2.15,2.15,0,0,1-.15.58l.23-.05a4.76,4.76,0,0,1-.07-.75A6.89,6.89,0,0,1,71,93.81q-2.46.48-4.83,1c-.06.18-.12.36-.17.55l1.73.22A2.1,2.1,0,0,1,69.37,98Z" transform="translate(-5.79 -3.25)"/><path d="M74.3,142.17c-1.67-.29-3.3-.61-4.88-.94a16.85,16.85,0,0,0-2.66,3.8q2,.45,4,.84A19.41,19.41,0,0,1,74.3,142.17Z" transform="translate(-5.79 -3.25)"/><path d="M65.82,99.3a9.16,9.16,0,0,1-.15-1.56A9.56,9.56,0,0,1,66,95.38l-1.39-.18c-3.44.82-6.7,1.74-9.78,2.73q4.81.94,10,1.63Z" transform="translate(-5.79 -3.25)"/><path d="M69.37,98a2.1,2.1,0,0,0-1.66-2.36L66,95.38a9.56,9.56,0,0,0-.31,2.36,9.16,9.16,0,0,0,.15,1.56c1.11-.26,2.24-.51,3.4-.76A2.15,2.15,0,0,0,69.37,98Z" transform="translate(-5.79 -3.25)"/><path d="M47.19,170c0-5.44,7.13-12.18,19-17.32a9.76,9.76,0,0,1-.56-3.17c0-.26,0-.52,0-.77-13.3,5.56-21.84,13.41-21.84,21.26,0,9,17,17.52,35.48,22.94a15.07,15.07,0,0,1,1.47-3.51C62,184,47.19,175.92,47.19,170Z" transform="translate(-5.79 -3.25)"/><path d="M66.23,152.66c1.13-.49,2.3-1,3.51-1.42a5,5,0,0,1-.36-1.75,5.42,5.42,0,0,1,.67-2.44c-1.5.53-2.94,1.08-4.34,1.67,0,.25,0,.51,0,.77A9.76,9.76,0,0,0,66.23,152.66Z" transform="translate(-5.79 -3.25)"/><path d="M84.35,190.38c-1.19-.31-2.37-.64-3.53-1a15.07,15.07,0,0,0-1.47,3.51l3.24.91A11.63,11.63,0,0,1,84.35,190.38Z" transform="translate(-5.79 -3.25)"/><path d="M357.09,276.7a52.78,52.78,0,0,1-10.81,0h0a2.09,2.09,0,0,1,1.65,2.37,2,2,0,0,1-1.84,1.93h-.17a55.51,55.51,0,0,0,5.75.3,54.7,54.7,0,0,0,5.73-.3,59.83,59.83,0,0,0,23.42-7.71q-1.14-1.75-2.25-3.54A56.21,56.21,0,0,1,357.09,276.7Z" transform="translate(-5.79 -3.25)"/><path d="M348,279.07a2.09,2.09,0,0,0-1.65-2.37h0a2,2,0,0,0-2,2,2.08,2.08,0,0,0,1.68,2.33h.17A2,2,0,0,0,348,279.07Z" transform="translate(-5.79 -3.25)"/><path d="M182.07,84.5c2.85-.7,5.64-1.45,8.38-2.23,7.54-4.19,17.86-7.79,29.9-10.26l.41-.16a126,126,0,0,1-22.25-6.53c-6.08,2-12.38,3.89-19,5.52a238.4,238.4,0,0,1-51.22,6.85C132.45,81.78,140.47,86.32,152,90A242.53,242.53,0,0,0,182.07,84.5Z" transform="translate(-5.79 -3.25)"/><path d="M234.6,66.19c5.15-8.31,21.1-16,42.13-20.19a133.16,133.16,0,0,1-17.68-4.76C252,44,244.86,47,237.69,50c-10.57,4.47-21.36,9-32.86,13.12a135.61,135.61,0,0,0,23.4,5.69C230.37,68,232.49,67.07,234.6,66.19Z" transform="translate(-5.79 -3.25)"/><path d="M292.29,45.45a100,100,0,0,1,43.37.27,109.43,109.43,0,0,1,25,9.09,100.48,100.48,0,0,1,16.47-6.14A123.64,123.64,0,0,0,338,32a108.48,108.48,0,0,0-22.8-2.75C300.82,34.43,292.89,40.91,292.29,45.45Z" transform="translate(-5.79 -3.25)"/><path d="M393.91,61.2a152.65,152.65,0,0,0-12.07-9.38,108.63,108.63,0,0,0-16.51,5.51,133.92,133.92,0,0,1,20.45,14.29" transform="translate(-5.79 -3.25)"/><path d="M246,61.38c7.88-3.33,15.53-6.49,23.1-9.22C259.21,54.78,251.45,58.06,246,61.38Z" transform="translate(-5.79 -3.25)"/><path d="M13.66,71.88a4.32,4.32,0,0,0,.08.79A374.07,374.07,0,0,0,71.49,87.45c4.72-4.17,12.11-8,21.35-11.15a341.8,341.8,0,0,1-69.57-15C17,65.11,13.66,69,13.66,71.88Z" transform="translate(-5.79 -3.25)"/><path d="M303.3,29.76c-13,1.24-25.47,4.65-37.79,9.08a149.53,149.53,0,0,0,23.34,4.79C290.13,38.73,295.32,33.92,303.3,29.76Z" transform="translate(-5.79 -3.25)"/><path d="M18.2,59.64l-4.66-1.59C10.36,56.94,7,59,6,62.72s.82,7.51,3.94,8.66C10.21,67.35,13.15,63.34,18.2,59.64Z" transform="translate(-5.79 -3.25)"/><path d="M121.27,91.77c7,0,14-.3,20.87-.84-9.13-3.81-15.78-8.37-18.85-13.15-6.07,0-12.21-.11-18.41-.49-12.43,3-21.78,7-27.76,11.06A297,297,0,0,0,121.27,91.77Z" transform="translate(-5.79 -3.25)"/><path d="M77.12,88.35c6-4,15.33-8.07,27.76-11.06-4-.24-8-.58-12-1-9.24,3.13-16.63,7-21.35,11.15Z" transform="translate(-5.79 -3.25)"/><path d="M190.45,82.27c10.6-3,20.46-6.55,29.9-10.26C208.31,74.48,198,78.08,190.45,82.27Z" transform="translate(-5.79 -3.25)"/><path d="M365.33,57.33a108.63,108.63,0,0,1,16.51-5.51l-4.74-3.15a100.48,100.48,0,0,0-16.47,6.14C362.21,55.61,363.78,56.46,365.33,57.33Z" transform="translate(-5.79 -3.25)"/><path d="M377.1,48.67l4.74,3.15Q379.49,50.18,377.1,48.67Z" transform="translate(-5.79 -3.25)"/><path d="M246,61.38c5.46-3.32,13.22-6.6,23.1-9.22,5.08-1.83,10.13-3.46,15.2-4.82-2.58-.39-5.1-.85-7.56-1.34-21,4.23-37,11.88-42.13,20.19l7.21-3Z" transform="translate(-5.79 -3.25)"/><path d="M228.23,68.83a135.61,135.61,0,0,1-23.4-5.69c-2.08.75-4.19,1.47-6.32,2.18a126,126,0,0,0,22.25,6.53C223.28,70.85,225.76,69.85,228.23,68.83Z" transform="translate(-5.79 -3.25)"/><path d="M288.76,44c0-.14.05-.27.09-.41a149.53,149.53,0,0,1-23.34-4.79c-2.16.77-4.31,1.58-6.46,2.4A133.16,133.16,0,0,0,276.73,46C280.58,45.23,284.6,44.57,288.76,44Z" transform="translate(-5.79 -3.25)"/><path d="M288.55,46.27c0-.09,0-.18,0-.27a9.36,9.36,0,0,1,.23-2c-4.16.53-8.18,1.19-12,2,2.46.49,5,1,7.56,1.34C285.71,47,287.13,46.61,288.55,46.27Z" transform="translate(-5.79 -3.25)"/><path d="M288.85,43.63l1.73.23h0a1.53,1.53,0,0,1,.37.08l.06,0a1.74,1.74,0,0,1,.27.14l.07,0a2,2,0,0,1,.23.18l.05.06a1.59,1.59,0,0,1,.2.24l0,0c.06.1.12.19.17.29s0,.1.05.15a1.55,1.55,0,0,1,.08.23l0,.12.1,0c.6-4.54,8.53-11,22.9-16.19l-11.89.5C295.32,33.92,290.13,38.73,288.85,43.63Z" transform="translate(-5.79 -3.25)"/><path d="M303.3,29.76l11.89-.5A111.13,111.13,0,0,0,303.3,29.76Z" transform="translate(-5.79 -3.25)"/><path d="M292.19,45.48l0-.12a.5.5,0,0,1,0,.12Z" transform="translate(-5.79 -3.25)"/><path d="M290.58,43.86l-1.73-.23c0,.14-.06.27-.09.41l1.44-.18A1.21,1.21,0,0,1,290.58,43.86Z" transform="translate(-5.79 -3.25)"/><path d="M288.55,46.27c1.21-.28,2.42-.55,3.63-.79a.5.5,0,0,0,0-.12,1.55,1.55,0,0,0-.08-.23c0-.05,0-.1-.05-.15s-.11-.19-.17-.29l0,0a1.59,1.59,0,0,0-.2-.24l-.05-.06a2,2,0,0,0-.23-.18l-.07,0A1.74,1.74,0,0,0,291,44l-.06,0a1.63,1.63,0,0,0-.37-.08,1.21,1.21,0,0,0-.38,0l-1.44.18a9.36,9.36,0,0,0-.23,2C288.53,46.09,288.55,46.18,288.55,46.27Z" transform="translate(-5.79 -3.25)"/><path d="M290.58,43.86h0a1.63,1.63,0,0,1,.37.08A1.53,1.53,0,0,0,290.58,43.86Z" transform="translate(-5.79 -3.25)"/><path d="M13.74,72.67a4.32,4.32,0,0,1-.08-.79c0-2.92,3.3-6.77,9.61-10.58q-2.52-.81-5.07-1.66c-5,3.7-8,7.71-8.22,11.74l.09.05Z" transform="translate(-5.79 -3.25)"/><path d="M177.33,95.78c0-.12,0-.25.08-.38A146.94,146.94,0,0,1,152,90c-3.27.38-6.57.69-9.88,1a125.28,125.28,0,0,0,23.1,6.83C169.11,97,173.15,96.31,177.33,95.78Z" transform="translate(-5.79 -3.25)"/><path d="M177.1,97.74a9.44,9.44,0,0,1,.23-2c-4.18.53-8.22,1.2-12.09,2,3.87.78,7.91,1.44,12.09,2A9.57,9.57,0,0,1,177.1,97.74Z" transform="translate(-5.79 -3.25)"/><path d="M179,99.92l.13,0-.2,0Z" transform="translate(-5.79 -3.25)"/><path d="M180.8,98v0s0,.05,0,.08S180.8,98,180.8,98Z" transform="translate(-5.79 -3.25)"/><path d="M179,95.6l-1.55-.2c0,.13-.06.26-.08.38l1.44-.18Z" transform="translate(-5.79 -3.25)"/><path d="M177.33,99.73c.48.06.95.13,1.44.18h.12l.2,0a1.63,1.63,0,0,0,.3-.07,2,2,0,0,0,.4-.16l.23-.17a2.47,2.47,0,0,0,.28-.28,4,4,0,0,0,.23-.34l.11-.23a2.48,2.48,0,0,0,.15-.61s0-.05,0-.08a1.33,1.33,0,0,0,0-.2,1.47,1.47,0,0,0,0-.21,2,2,0,0,0-1.65-1.93l-.19,0h-.19l-1.44.18a9.44,9.44,0,0,0-.23,2A9.57,9.57,0,0,0,177.33,99.73Z" transform="translate(-5.79 -3.25)"/><path d="M142.14,90.93c3.31-.26,6.61-.57,9.88-1-11.55-3.66-19.57-8.2-23.69-12.29q-2.51.06-5,.09C126.36,82.56,133,87.12,142.14,90.93Z" transform="translate(-5.79 -3.25)"/><path class="cls-2" d="M375.13,90c-.71,1.27-1.39,2.55-2.07,3.83" transform="translate(-5.79 -3.25)"/><path class="cls-2" d="M368.5,103.21c-.82,1.83-1.6,3.67-2.36,5.53" transform="translate(-5.79 -3.25)"/><path class="cls-2" d="M357.86,134.37c-.34,1.43-.67,2.87-1,4.32" transform="translate(-5.79 -3.25)"/><path class="cls-2" d="M353.07,182.82c.07,1.81.16,3.6.29,5.39" transform="translate(-5.79 -3.25)"/><path class="cls-2" d="M353.45,162.45c-.14,1.79-.24,3.59-.32,5.4" transform="translate(-5.79 -3.25)"/><path class="cls-2" d="M356.62,212.19c.3,1.45.62,2.89.95,4.33" transform="translate(-5.79 -3.25)"/><path class="cls-2" d="M386.45,72.19" transform="translate(-5.79 -3.25)"/><path class="cls-2" d="M394.58,61.78" transform="translate(-5.79 -3.25)"/><path class="cls-2" d="M357.16,216.77l-.38.24" transform="translate(-5.79 -3.25)"/><path class="cls-2" d="M364.31,241.18l.52.24" transform="translate(-5.79 -3.25)"/><path class="cls-2" d="M355.82,212.66l.38-.23" transform="translate(-5.79 -3.25)"/><path class="cls-2" d="M352.89,187.88l-.46-.33" transform="translate(-5.79 -3.25)"/><path class="cls-2" d="M374.64,89.87l-.37-.11c-.7,1.26-1.39,2.53-2,3.81l.36.12C373.25,92.41,373.94,91.14,374.64,89.87Z" transform="translate(-5.79 -3.25)"/><path class="cls-2" d="M365.51,109c.76-1.86,1.54-3.72,2.35-5.55l-.51.2c-.82,1.84-1.6,3.71-2.36,5.58Z" transform="translate(-5.79 -3.25)"/><path class="cls-2" d="M356.08,138.22l.39.22c.31-1.44.64-2.88,1-4.31l-.38-.23Q356.56,136,356.08,138.22Z" transform="translate(-5.79 -3.25)"/><path class="cls-2" d="M352.22,168.62l.45-.4c.08-1.82.18-3.64.31-5.45l-.46.33Q352.33,165.85,352.22,168.62Z" transform="translate(-5.79 -3.25)"/><path class="cls-2" d="M352.43,187.55l.46.33q-.18-2.7-.27-5.43l-.46-.39Q352.27,184.8,352.43,187.55Z" transform="translate(-5.79 -3.25)"/><path class="cls-2" d="M364.31,241.18c.74,1.89,1.52,3.75,2.32,5.61l.52.2c-.8-1.84-1.58-3.7-2.32-5.57Z" transform="translate(-5.79 -3.25)"/><path class="cls-2" d="M356.2,212.43l-.38.23c.3,1.45.63,2.9,1,4.35l.38-.24C356.82,215.33,356.51,213.88,356.2,212.43Z" transform="translate(-5.79 -3.25)"/><path class="cls-2" d="M378.92,269.55l-.33.19q1.11,1.78,2.25,3.54l.32-.19C380.4,271.92,379.65,270.74,378.92,269.55Z" transform="translate(-5.79 -3.25)"/><path class="cls-2" d="M385.78,71.62l.28.23" transform="translate(-5.79 -3.25)"/><path class="cls-2" d="M394.19,61.43l-.28-.23" transform="translate(-5.79 -3.25)"/><path class="cls-2" d="M357.57,216.52l-.41.25" transform="translate(-5.79 -3.25)"/><path class="cls-2" d="M364.83,241.42l.64.28" transform="translate(-5.79 -3.25)"/><path class="cls-2" d="M356.2,212.43l.42-.24" transform="translate(-5.79 -3.25)"/><path class="cls-2" d="M353.36,188.21l-.47-.33" transform="translate(-5.79 -3.25)"/><path class="cls-2" d="M373.06,93.85c.68-1.28,1.36-2.56,2.07-3.83l-.49-.15c-.7,1.27-1.39,2.54-2.06,3.82Z" transform="translate(-5.79 -3.25)"/><path class="cls-2" d="M356.47,138.44l.41.25c.31-1.45.64-2.89,1-4.32l-.41-.24C357.11,135.56,356.78,137,356.47,138.44Z" transform="translate(-5.79 -3.25)"/><path class="cls-2" d="M367.86,103.45c-.81,1.83-1.59,3.69-2.35,5.55l.63-.26c.76-1.86,1.54-3.7,2.36-5.53Z" transform="translate(-5.79 -3.25)"/><path class="cls-2" d="M352.89,187.88l.47.33c-.13-1.79-.22-3.58-.29-5.39l-.45-.37Q352.71,185.18,352.89,187.88Z" transform="translate(-5.79 -3.25)"/><path class="cls-2" d="M353,162.77c-.13,1.81-.23,3.63-.31,5.45l.46-.37c.08-1.81.18-3.61.32-5.4Z" transform="translate(-5.79 -3.25)"/><path class="cls-2" d="M364.83,241.42c.74,1.87,1.52,3.73,2.32,5.57.2.09.42.16.63.24q-1.2-2.74-2.31-5.53Z" transform="translate(-5.79 -3.25)"/><path class="cls-2" d="M356.2,212.43c.31,1.45.62,2.9,1,4.34l.41-.25c-.33-1.44-.65-2.88-.95-4.33Z" transform="translate(-5.79 -3.25)"/><path class="cls-2" d="M379.36,269.3l-.44.25c.73,1.19,1.48,2.37,2.24,3.54.15-.08.3-.16.44-.25C380.84,271.67,380.09,270.49,379.36,269.3Z" transform="translate(-5.79 -3.25)"/><path class="cls-2" d="M386.06,71.85l.39.34" transform="translate(-5.79 -3.25)"/><path class="cls-2" d="M394.58,61.78l-.39-.35" transform="translate(-5.79 -3.25)"/></g><g id="Layer_1" data-name="Layer 1"><g id="Layer_1-2" data-name="Layer 1"><circle class="cls-3" cx="527.77" cy="176.45" r="49.21"/><path d="M639,179.7A105.49,105.49,0,0,1,532,285.16c-56.81-.8-103.17-47.17-103.95-104A105.48,105.48,0,1,1,639,179.69ZM533.55,3.25A176.46,176.46,0,1,0,710,179.72v0A176.45,176.45,0,0,0,533.55,3.25Z" transform="translate(-5.79 -3.25)"/><path class="cls-4" d="M533.55,226.76l-24.38,55.58m24.38,3.71-9.75-59.29" transform="translate(-5.79 -3.25)"/><path class="cls-4" d="M545.74,225.18l-9.18,60m24.52-2.73-24.77-54.68" transform="translate(-5.79 -3.25)"/><path class="cls-4" d="M557.09,220.47l6.67,60.32m23-9-38.09-46.44" transform="translate(-5.79 -3.25)"/><path class="cls-4" d="M566.84,213l22,56.53m19.86-14.62-48.81-35" transform="translate(-5.79 -3.25)"/><path class="cls-4" d="M574.33,203.24l35.92,48.9m15.45-19.26L569.49,211.7" transform="translate(-5.79 -3.25)"/><path class="cls-4" d="M579,191.89l47.36,37.92m9.84-22.63-59.77-5.91" transform="translate(-5.79 -3.25)"/><path class="cls-4" d="M580.63,179.7l55.56,24.43m3.71-24.39-59.27,9.72" transform="translate(-5.79 -3.25)"/><path class="cls-4" d="M579,167.51l60,9.18m-2.74-24.51-54.72,24.76" transform="translate(-5.79 -3.25)"/><path class="cls-4" d="M574.33,156.17l60.3-6.68m-8.93-23-46.45,38.08" transform="translate(-5.79 -3.25)"/><path class="cls-4" d="M566.84,146.41l56.53-22m-14.62-19.87-35,48.77" transform="translate(-5.79 -3.25)"/><path class="cls-4" d="M557.09,138.93,606,103m-19.29-15.4-21.19,56.2" transform="translate(-5.79 -3.25)"/><path class="cls-4" d="M545.74,134.25l37.93-47.36M561.08,77l-5.91,59.78" transform="translate(-5.79 -3.25)"/><path class="cls-4" d="M533.55,132.62l24.38-55.55m-24.38-3.71,9.76,59.26" transform="translate(-5.79 -3.25)"/><path class="cls-4" d="M521.38,134.25l9.16-60M506,76.94l24.78,54.73" transform="translate(-5.79 -3.25)"/><path class="cls-4" d="M510,138.93l-6.66-60.31m-23,9,38,46.44" transform="translate(-5.79 -3.25)"/><path class="cls-4" d="M500.27,146.41,478.21,89.89m-19.82,14.62,48.81,35" transform="translate(-5.79 -3.25)"/><path class="cls-4" d="M492.83,156.17l-35.93-48.9m-15.4,19.26,56.21,21.18" transform="translate(-5.79 -3.25)"/><path class="cls-4" d="M488.08,167.51l-47.36-37.92m-9.84,22.64,59.77,5.9" transform="translate(-5.79 -3.25)"/><path class="cls-4" d="M486.48,179.7l-55.57-24.38M427.2,179.7,486.48,170" transform="translate(-5.79 -3.25)"/><path class="cls-4" d="M488.08,191.89l-60-9.17m2.73,24.51,54.72-24.76" transform="translate(-5.79 -3.25)"/><path class="cls-4" d="M492.83,203.24l-60.31,6.67m9,23L488,194.79" transform="translate(-5.79 -3.25)"/><path class="cls-4" d="M500.27,213,443.73,235m14.66,19.87,35-48.8" transform="translate(-5.79 -3.25)"/><path class="cls-4" d="M510,220.47l-48.9,35.93m19.26,15.4,21.19-56.21" transform="translate(-5.79 -3.25)"/><path class="cls-4" d="M521.38,225.18l-37.93,47.36M506,282.38l5.91-59.78" transform="translate(-5.79 -3.25)"/><path class="cls-5" d="M371.16,396.22" transform="translate(-5.79 -3.25)"/></g></g></svg>